<?xml version="1.0" standalone="no"?><!DOCTYPE svg PUBLIC "-//W3C//DTD SVG 1.1//EN" "http://www.w3.org/Graphics/SVG/1.1/DTD/svg11.dtd"><svg t="1695989990933" class="icon" viewBox="0 0 1024 1024" version="1.1" xmlns="http://www.w3.org/2000/svg" p-id="4155" xmlns:xlink="http://www.w3.org/1999/xlink" width="200" height="200"><path d="M768 755.456H590.370133c-14.421333 0-26.112 12.475733-26.112 27.869867v168.618666h28.433067L768 760.439467v-4.983467zM768 699.733333v-88.183466c0-15.189333 11.4688-27.477333 25.6-27.477334s25.6 12.288 25.6 27.477334v160.136533c0 7.2192-2.645333 14.1312-7.338667 19.285333L621.687467 998.7072a24.746667 24.746667 0 0 1-18.261334 8.226133H220.16C155.136 1006.933333 102.4 950.306133 102.4 880.452267V143.530667C102.4 73.693867 155.136 17.066667 220.16 17.066667h481.28C766.464 17.066667 819.2 73.693867 819.2 143.547733v48.930134c0 15.189333-11.4688 27.477333-25.6 27.477333s-25.6-12.288-25.6-27.477333V143.530667c0-39.4752-29.7984-71.492267-66.56-71.492267H220.16c-36.7616 0-66.56 32.017067-66.56 71.509333v736.887467c0 39.4752 29.7984 71.492267 66.56 71.492267H512v-168.618667C512 737.160533 547.089067 699.733333 590.370133 699.733333H768zM389.597867 256c33.006933 0 59.511467 8.6528 78.7456 25.941333 18.551467 16.503467 28.1088 39.287467 29.184 67.584h-44.8c-2.594133-18.4832-9.693867-31.829333-21.674667-40.482133-11.588267-8.635733-27.2384-12.578133-46.882133-12.578133-29.474133 0-52.599467 9.8304-69.888 30.2592-15.8208 18.090667-25.3952 43.229867-29.0816 75.434666-3.7888 33.024-0.0512 58.555733 11.281066 76.2368 12.373333 18.858667 34.048 28.672 64.682667 28.672 20.053333 0 37.137067-5.085867 50.7904-14.523733 14.574933-10.615467 25.856-26.7264 33.792-47.940267h44.8c-10.069333 33.006933-27.5456 58.538667-52.855467 77.021867-23.586133 17.288533-50.517333 25.941333-80.776533 25.941333-46.762667 0-80.008533-14.9504-99.464533-44.032-17.152-25.1392-23.0912-58.9312-18.2272-101.376 4.778667-41.642667 18.926933-75.8272 42.717866-101.751466C308.9408 270.5408 344.797867 256 389.597867 256z m229.034666 102.331733h28.586667l-7.150933 62.344534h62.344533l-3.2768 28.603733h-62.344533l-7.202134 62.651733h-28.586666l7.202133-62.651733h-62.6688l3.2768-28.603733h62.6688l7.168-62.344534z m204.8 0h28.586667l-7.150933 62.344534h62.344533l-3.2768 28.603733h-62.344533l-7.202134 62.651733h-28.586666l7.202133-62.651733h-62.6688l3.2768-28.603733h62.6688l7.168-62.344534z" fill="#979797" p-id="4156"></path></svg>