<svg width="526" height="640" fill="none" xmlns="http://www.w3.org/2000/svg"><g clip-path="url(#clip0_3000_6246)"><path opacity=".2" d="M256 182.857C256 211.225 232.8 234 204.8 234H57.6C25.6 234 0 208.429 0 176.464c0-24.772 16-46.348 38.4-53.939v-3.596C38.4 83.768 66.8 55 102.4 55c23.6 0 44.4 13.185 55.2 32.364 6-4.395 13.6-6.793 21.6-6.793 21.2 0 38.4 17.181 38.4 38.358 0 5.194-1.2 9.589-2.8 13.984 23.6 4.795 41.2 25.571 41.2 49.944zM526 426.857C526 455.225 502.8 478 474.8 478H327.6c-32 0-57.6-25.571-57.6-57.536 0-24.772 16-46.348 38.4-53.939v-3.596c0-35.161 28.4-63.929 64-63.929 23.6 0 44.4 13.185 55.2 32.364 6-4.395 13.6-6.793 21.6-6.793 21.2 0 38.4 17.181 38.4 38.358 0 5.194-1.2 9.589-2.8 13.984 23.6 4.795 41.2 25.571 41.2 49.944z" fill="#E599F7"/><path d="M174-331c0-12.15 9.85-22 22-22h66v626c0 12.15-9.85 22-22 22h-44c-12.15 0-22-9.85-22-22v-604z" fill="#FF8787"/><path d="M202 43c0-5.688 3-10.938 8-13.813 4.938-2.875 11-2.875 16 0 4.938 2.875 8 8.125 8 13.813 0 5.75-3.062 11-8 13.875-5 2.875-11.062 2.875-16 0C205 54 202 48.75 202 43zm10-5.375l-1.375-.5-1.063 2.75 1.376.563 4 1.5H215v3.374l-1.938 5.75-.5 1.438 2.876.938.437-1.438 1.687-5h.813l1.687 5 .438 1.438 2.875-.938-.5-1.438-1.875-5.75v-3.374l4-1.5 1.375-.563-1-2.75-1.437.5-3.75 1.375h-4.438L212 37.625zm6-.625c.875 0 1.688-.438 2.125-1.25.437-.75.437-1.688 0-2.5-.437-.75-1.25-1.25-2.125-1.25-.938 0-1.75.5-2.188 1.25-.437.813-.437 1.75 0 2.5.438.813 1.25 1.25 2.188 1.25zM202 108l16-9 16 9v3h-32v-3zm8 5v12h2.5v-12h4v12h3v-12h4v12h2.5v-12h4v12l4 3v3h-32v-3l4-3v-12h4zM204 173h26c4.375 0 8 3.625 8 8 0 4.438-3.625 8-8 8h-2v6h-24v-22zm24 12h2c2.188 0 4-1.75 4-4 0-2.188-1.812-4-4-4h-2v8zm-28 12h34v4h-36v-4h2zM218 275c-5.75 0-11-3-13.875-8-2.875-4.938-2.875-11 0-16 2.875-4.938 8.125-8 13.875-8 5.688 0 10.938 3.062 13.812 8 2.876 5 2.876 11.062 0 16-2.874 5-8.124 8-13.812 8zm-8-8l12-4 4-12-12 4-4 12zm10-8c0 1.125-.938 2-2 2-1.125 0-2-.875-2-2 0-1.062.875-2 2-2 1.062 0 2 .938 2 2z" fill="#E03131"/><path d="M262-331c0-12.15 9.85-22 22-22h66v624c0 13.255-10.745 24-24 24h-42c-12.15 0-22-9.85-22-22v-604z" fill="#FFD43B"/><path d="M292.438 43.5c-1.563-1.563-2.438-3.75-2.438-6 0-4.688 3.75-8.5 8.438-8.5 2.25 0 4.437.938 6 2.5L306 33l1.5-1.5c1.562-1.563 3.75-2.5 6-2.5 4.688 0 8.5 3.813 8.5 8.5 0 2.25-.938 4.438-2.5 6L318 45l-12 12-12-12-1.562-1.5zM306 99l10.5 11v2h-3l5 5v2H315l5 6v2h-12v4h-4v-4h-12v-2l5-6h-3.5v-2l5-5h-3v-2L306 99zM322 171v26h-13l-9 6v-6h-10v-26h32zM314.438 267.5L313 263h-14l-1.5 4.5c2.125 2.188 5.125 3.5 8.5 3.5 3.312 0 6.312-1.312 8.438-3.5zM290 259c0-5.688 3-10.938 8-13.812 4.938-2.876 11-2.876 16 0 4.938 2.874 8 8.124 8 13.812 0 5.75-3.062 11-8 13.875-5 2.875-11.062 2.875-16 0-5-2.875-8-8.125-8-13.875zm16 1a4.435 4.435 0 0 0 3.875-2.25c.813-1.375.813-3.062 0-4.5-.813-1.375-2.313-2.25-3.875-2.25a4.594 4.594 0 0 0-3.938 2.25c-.812 1.438-.812 3.125 0 4.5.813 1.438 2.313 2.25 3.938 2.25z" fill="#FAB005"/><path d="M350-331c0-12.15 9.85-22 22-22h66v626c0 12.15-9.85 22-22 22h-44c-12.15 0-22-9.85-22-22v-604z" fill="#74C0FC"/><path d="M377 27h20c1.625 0 3 1.375 3 3v3h3.125c1.063 0 2.125.438 2.875 1.188L410.812 39A4.122 4.122 0 0 1 412 41.875V49c1.062 0 2 .938 2 2 0 1.125-.938 2-2 2h-2c0 3.313-2.688 6-6 6s-6-2.688-6-6h-8c0 3.313-2.688 6-6 6s-6-2.688-6-6h-1c-1.688 0-3-1.313-3-3V30a3 3 0 0 1 3-3zm23 10v6h8v-1.125L403.125 37H400zm-19 16c0 1.125.562 2.063 1.5 2.625.875.563 2.062.563 3 0 .875-.563 1.5-1.5 1.5-2.625 0-1.063-.625-2-1.5-2.563-.938-.562-2.125-.562-3 0-.938.563-1.5 1.5-1.5 2.563zm23-3c-1.125 0-2.062.625-2.625 1.5-.563.938-.563 2.125 0 3 .563.938 1.5 1.5 2.625 1.5 1.062 0 2-.563 2.562-1.5.563-.875.563-2.063 0-3-.562-.875-1.5-1.5-2.562-1.5zM398 99h2c1.062 0 2 .938 2 2 0 1.125-.938 2-2 2v8.312c0 .75.188 1.5.562 2.126l6.75 11c.438.687.688 1.437.688 2.25 0 2.374-2 4.312-4.375 4.312h-19.313a4.322 4.322 0 0 1-4.312-4.312c0-.813.188-1.563.625-2.25l6.75-11c.375-.626.625-1.376.625-2.126V103c-1.125 0-2-.875-2-2 0-1.063.875-2 2-2h10zm-6 12.312c0 1.5-.438 2.938-1.188 4.188l-2.187 3.5h10.687l-2.124-3.5c-.813-1.25-1.188-2.688-1.188-4.188V103h-4v8.312zM387.25 179.875C389.688 177.812 393 176 397 176c3.938 0 7.25 1.812 9.688 3.875 2.437 2.063 4.187 4.5 5.062 6.25.312.563.312 1.25 0 1.813-.875 1.687-2.625 4.187-5.062 6.25C404.25 196.25 400.938 198 397 198c-4 0-7.312-1.75-9.75-3.812-1-.876-1.875-1.813-2.688-2.688L379 194.75c-.812.438-1.812.312-2.438-.312a1.99 1.99 0 0 1-.312-2.376l2.875-5.062-2.875-5a1.99 1.99 0 0 1 .312-2.375c.626-.625 1.626-.75 2.438-.313l5.562 3.25c.813-.874 1.688-1.812 2.688-2.687zM404 187c0-1.062-.938-2-2-2-1.125 0-2 .938-2 2 0 1.125.875 2 2 2 1.062 0 2-.875 2-2zM385.312 251h5.626c4.937-8.188 12.624-8.5 17.25-7.625.75.125 1.312.687 1.437 1.437.875 4.626.563 12.313-7.625 17.25v5.626c0 1.562-.875 3.062-2.25 3.874l-5.5 3.25c-.5.313-1.062.313-1.5 0-.5-.25-.75-.75-.75-1.312v-7.125a5.392 5.392 0 0 0-1.562-3.813c-1-1-2.376-1.562-3.813-1.562H379.5c-.562 0-1.062-.25-1.312-.75-.313-.438-.313-1 0-1.5l3.25-5.5c.812-1.375 2.312-2.25 3.874-2.25zm19.188 0c0-.875-.5-1.688-1.25-2.125-.812-.437-1.75-.437-2.5 0-.812.437-1.25 1.25-1.25 2.125 0 .938.438 1.75 1.25 2.188.75.437 1.688.437 2.5 0A2.522 2.522 0 0 0 404.5 251zm-16.125 21.375c-2.125 2.187-6.25 2.563-8.625 2.625-1 .062-1.812-.75-1.75-1.75.062-2.375.438-6.5 2.625-8.625 2.125-2.125 5.625-2.125 7.75 0s2.125 5.625 0 7.75zm-2.937-2.25c.75-.687.75-1.875 0-2.563a1.741 1.741 0 0 0-2.563 0c-.625.626-.813 1.75-.875 2.563 0 .5.375.875.875.875.813-.062 1.937-.25 2.563-.875z" fill="#1C7ED6"/><path d="M438-331c0-12.15 9.85-22 22-22h66v626c0 12.15-9.85 22-22 22h-44c-12.15 0-22-9.85-22-22v-604z" fill="#63E6BE"/><path d="M482 29c-5.062 0-9.625 2.688-12.125 7-2.563 4.375-2.563 9.688 0 14 2.5 4.375 7.063 7 12.125 7 5 0 9.562-2.625 12.062-7 2.563-4.313 2.563-9.625 0-14-2.5-4.313-7.062-7-12.062-7zm0 30c-5.75 0-11-3-13.875-8-2.875-4.938-2.875-11 0-16C471 30.062 476.25 27 482 27c5.688 0 10.938 3.063 13.812 8 2.876 5 2.876 11.063 0 16-2.874 5-8.124 8-13.812 8zm5.75-24.313c1.562-.5 3.062 1 2.562 2.563l-3.062 9.125c-.312.938-1 1.625-1.938 1.938l-9.124 3.062c-1.563.5-3.063-1-2.563-2.563l3.063-9.124c.312-.938 1-1.626 1.937-1.938l9.125-3.063zm.625 1.938l-9.125 3.063a.804.804 0 0 0-.625.624l-3.063 9.126 9.126-3.063a.802.802 0 0 0 .624-.625l3.063-9.125zM482 44.5c-.875 0-1.5-.625-1.5-1.5 0-.813.625-1.5 1.5-1.5.812 0 1.5.688 1.5 1.5 0 .875-.688 1.5-1.5 1.5zM470.312 112.188c-.124.5-.562.812-1 .812-.624 0-1.124-.5-1-1.125 1.438-6.187 7-10.875 13.688-10.875 5.062 0 9.5 2.75 12 6.812V104c0-.5.438-1 1-1 .5 0 1 .5 1 1v6c0 .562-.5 1-1 1h-6c-.562 0-1-.438-1-1 0-.5.438-1 1-1h3.375c-2.063-3.562-5.937-6-10.375-6-5.688 0-10.438 3.938-11.688 9.188zm23.313 5.687c.125-.5.563-.875 1.063-.875.562 0 1.062.562.937 1.188-1.437 6.187-7 10.812-13.625 10.812-5.125 0-9.562-2.688-12-6.75V126c0 .562-.438 1-1 1s-1-.438-1-1v-6c0-.5.438-1 1-1h6c.562 0 1 .5 1 1 0 .562-.438 1-1 1h-3.438c2.063 3.625 5.938 6 10.438 6 5.625 0 10.375-3.875 11.625-9.125zM472 171h21c1.625 0 3 1.375 3 3v20c0 1.312-.875 2.438-2 2.875V201h1c.5 0 1 .5 1 1 0 .562-.5 1-1 1h-23c-2.25 0-4-1.75-4-4v-24c0-2.188 1.75-4 4-4zm20 26h-20c-1.125 0-2 .938-2 2 0 1.125.875 2 2 2h20v-4zm-20-2h2v-22h-2c-1.125 0-2 .938-2 2v20.562c.562-.312 1.25-.562 2-.562zm4 0h17c.5 0 1-.438 1-1v-20c0-.5-.5-1-1-1h-17v22zm3-15c0-.5.438-1 1-1h10c.5 0 1 .5 1 1 0 .562-.5 1-1 1h-10c-.562 0-1-.438-1-1zm0 6c0-.5.438-1 1-1h10c.5 0 1 .5 1 1 0 .562-.5 1-1 1h-10c-.562 0-1-.438-1-1zM468 247h28c2.188 0 4 1.812 4 4v4.125c0 .5-.312.875-.75 1A2.949 2.949 0 0 0 497 259c0 1.438.938 2.625 2.25 2.938.438.124.75.5.75.937V267c0 2.25-1.812 4-4 4h-28c-2.25 0-4-1.75-4-4v-4.125c0-.437.25-.813.75-.937 1.25-.313 2.25-1.5 2.25-2.938 0-1.375-1-2.562-2.25-2.875-.5-.125-.75-.5-.75-1V251c0-2.188 1.75-4 4-4zm-2 4v3.438c1.75.75 3 2.562 3 4.562 0 2.062-1.25 3.812-3 4.625V267c0 1.125.875 2 2 2h28c1.062 0 2-.875 2-2v-3.375c-1.812-.813-3-2.563-3-4.625 0-2 1.188-3.812 3-4.562V251c0-1.062-.938-2-2-2h-28c-1.125 0-2 .938-2 2zm8 4v8h16v-8h-16zm-2 0c0-1.062.875-2 2-2h16c1.062 0 2 .938 2 2v8c0 1.125-.938 2-2 2h-16c-1.125 0-2-.875-2-2v-8z" fill="#0CA678"/><path fill-rule="evenodd" clip-rule="evenodd" d="M460 151c-12.15 0-22 9.85-22 22v122h66c-12.15 0-22-9.85-22-22 0-.674.03-1.341.09-2H482v-98c0-12.15-9.85-22-22-22z" fill="#0CA678"/><path fill-rule="evenodd" clip-rule="evenodd" d="M460 151c-12.15 0-22 9.85-22 22v122h66c-12.15 0-22-9.85-22-22 0-.674.03-1.341.09-2H482v-98c0-12.15-9.85-22-22-22z" fill="#0CA678" opacity=".25"/><path d="M86 173c0-12.15 9.85-22 22-22h66v626c0 12.15-9.85 22-22 22h-44c-12.15 0-22-9.85-22-22V173z" fill="#FF8787"/><path d="M130 187c-2.875 0-5.5-1.5-6.938-4-1.437-2.438-1.437-5.5 0-8 1.438-2.438 4.063-4 6.938-4 2.812 0 5.438 1.562 6.875 4 1.437 2.5 1.437 5.562 0 8a7.928 7.928 0 0 1-6.875 4zm14 16h-28l4-13h20l4 13zM132 243v3.25c4.562.875 8 4.938 8 9.75v5.5l4 4.5v3h-28v-3l4-4.5V256c0-4.812 3.438-8.875 8-9.75V243h4zm2 28a4.123 4.123 0 0 1-1.188 2.875c-.75.75-1.75 1.125-2.812 1.125-1.062 0-2.125-.375-2.875-1.125S126 272.062 126 271h8zM130 317c9.875 0 16.125 9.375 18 14-1.875 4.688-8.125 14-18 14-9.938 0-16.125-9.312-18-14 1.875-4.625 8.062-14 18-14zm-9 14c0 3.25 1.688 6.188 4.5 7.812 2.75 1.626 6.188 1.626 9 0 2.75-1.624 4.5-4.562 4.5-7.812 0-3.188-1.75-6.125-4.5-7.75-2.812-1.625-6.25-1.625-9 0-2.812 1.625-4.5 4.562-4.5 7.75zm3 0c0-.375 0-.75.062-1.125L130 331l-1.188-5.875c.376-.063.75-.125 1.188-.125 3.312 0 6 2.688 6 6s-2.688 6-6 6-6-2.688-6-6zM121.5 389h18.375l.5 1.375 3 8.625H146v18h-6v-5h-20v5h-6v-18h2.562l3-8.625.5-1.375h1.438zm17.625 10l-2.063-6h-14.187l-2.063 6h18.313zM118 405c0 1.125.875 2 2 2 1.062 0 2-.875 2-2 0-1.062-.938-2-2-2-1.125 0-2 .938-2 2zm22-2c-1.125 0-2 .938-2 2 0 1.125.875 2 2 2 1.062 0 2-.875 2-2 0-1.062-.938-2-2-2zM114 489v-28h14l3 4h15v24h-32zM114 547c0-5.688 3-10.938 8-13.812 4.938-2.876 11-2.876 16 0 4.938 2.874 8 8.124 8 13.812 0 5.75-3.062 11-8 13.875-5 2.875-11.062 2.875-16 0-5-2.875-8-8.125-8-13.875zm10-5.375l-1.375-.5-1.063 2.75 1.376.563 4 1.5H127v3.374l-1.938 5.75-.5 1.438 2.876.938.437-1.438 1.687-5h.813l1.687 5 .438 1.438 2.875-.938-.5-1.438-1.875-5.75v-3.374l4-1.5 1.375-.563-1-2.75-1.437.5-3.75 1.375h-4.438l-3.75-1.375zm6-.625c.875 0 1.688-.438 2.125-1.25.437-.75.437-1.688 0-2.5-.437-.75-1.25-1.25-2.125-1.25-.938 0-1.75.5-2.188 1.25-.437.812-.437 1.75 0 2.5.438.812 1.25 1.25 2.188 1.25zM114 612l16-9 16 9v3h-32v-3zm8 5v12h2.5v-12h4v12h3v-12h4v12h2.5v-12h4v12l4 3v3h-32v-3l4-3v-12h4z" fill="#E03131"/><path d="M174 173c0-12.15 9.85-22 22-22h66v626c0 12.15-9.85 22-22 22h-44c-12.15 0-22-9.85-22-22V173z" fill="#FFD43B"/><path d="M220 173v14h2v-14h4v14h2v-10h4v15c0 6.125-4.938 11-11 11h-1.25c-3.688 0-7.312-1.375-10-4l-5.938-5.688-1.812-1.687 3.438-3.625 1.812 1.75 2.75 2.562V173h4v14h2v-16h4v2zM218.688 243.312l13 5 1.187.5.063 1.25c.187 3.126-.313 7.938-2.313 12.563-2.063 4.75-5.687 9.375-11.875 12.063L218 275l-.812-.312c-6.188-2.688-9.813-7.313-11.876-12.063-2-4.625-2.5-9.437-2.312-12.563l.062-1.25 1.188-.5 13-5L218 243l.688.312zm-.688 4h-.062v23.313c4.562-2.187 7.374-5.813 9-9.563 1.5-3.437 2-6.937 2.062-9.5l-11-4.25zM213 315h10l1 2h8v4h-28v-4h8l1-2zm17 8l-1.5 24h-21l-1.5-24h24zM224 391v24h-24v-24h24zm12 24l-10-6.875v-10.187L236 391v24zM234 459.312V482c0 2.812-2.688 5-6 5s-6-2.188-6-5c0-2.75 2.688-5 6-5 .688 0 1.375.125 2 .312v-8.124L214 474v12c0 2.812-2.688 5-6 5s-6-2.188-6-5c0-2.75 2.688-5 6-5 .688 0 1.375.125 2 .312v-14.75l1.375-.437 20-6 2.625-.813zM204.438 547.5c-1.563-1.562-2.438-3.75-2.438-6 0-4.688 3.75-8.5 8.438-8.5 2.25 0 4.437.938 6 2.5L218 537l1.5-1.5c1.562-1.562 3.75-2.5 6-2.5 4.688 0 8.5 3.812 8.5 8.5 0 2.25-.938 4.438-2.5 6L230 549l-12 12-12-12-1.562-1.5zM218 603l10.5 11v2h-3l5 5v2H227l5 6v2h-12v4h-4v-4h-12v-2l5-6h-3.5v-2l5-5h-3v-2l10.5-11z" fill="#FAB005"/><path d="M262 173c0-12.15 9.85-22 22-22h66v626c0 12.15-9.85 22-22 22h-44c-12.15 0-22-9.85-22-22V173z" fill="#74C0FC"/><path d="M292 176c0-1.625 1.312-3 3-2.938h9.312c1.063 0 2.063.376 2.813 1.126l11 11a4.035 4.035 0 0 1 0 5.687l-8.313 8.313a4.037 4.037 0 0 1-5.687 0l-11-11c-.75-.75-1.125-1.75-1.125-2.813V176zm7 2c-1.125 0-2 .938-2 2 0 1.125.875 2 2 2 1.062 0 2-.875 2-2 0-1.062-.938-2-2-2zM322 258c0 7.188-7.188 13-16 13-2.375 0-4.562-.375-6.562-1.062-.688.5-1.938 1.25-3.376 1.874-1.5.688-3.312 1.188-5.062 1.188-.438 0-.812-.188-.938-.562-.187-.376-.062-.813.188-1.126.062 0 .062-.062.125-.124l.313-.313c.25-.313.562-.813.937-1.375a8.9 8.9 0 0 0 1.313-3.938C291.062 263.438 290 260.875 290 258c0-7.125 7.125-13 16-13 8.812 0 16 5.875 16 13zM323.938 331c0 1.125-.938 2-2 2h-2l.062 10v1.5c0 1.438-1.125 2.5-2.5 2.5h-5c-1.438 0-2.5-1.062-2.5-2.5V339c0-1.062-.938-2-2-2h-4c-1.125 0-2 .938-2 2v5.5c0 1.438-1.125 2.5-2.5 2.5h-5c-1.438 0-2.5-1.062-2.5-2.5v-7-4.5h-2c-1.125 0-2-.875-2-2 0-.562.188-1.062.625-1.5l16-14c.437-.438.937-.5 1.375-.5.438 0 .938.125 1.312.438L323.25 329.5c.5.438.75.938.688 1.5zM292 393c0-1.062.875-2 2-2h24c1.062 0 2 .938 2 2 0 1.125-.938 2-2 2h-24c-1.125 0-2-.875-2-2zm0 10c0-1.062.875-2 2-2h24c1.062 0 2 .938 2 2 0 1.125-.938 2-2 2h-24c-1.125 0-2-.875-2-2zm28 10c0 1.125-.938 2-2 2h-24c-1.125 0-2-.875-2-2 0-1.062.875-2 2-2h24c1.062 0 2 .938 2 2zM319.438 460.375l1.187 1.187a3.471 3.471 0 0 1 0 4.938l-1.875 1.875-6.125-6.125 1.875-1.875a3.471 3.471 0 0 1 4.938 0zm-18.688 13.75l10.438-10.437 6.124 6.124-10.437 10.438a3.965 3.965 0 0 1-1.375.875l-5.562 1.813c-.5.187-1.126.062-1.5-.376-.438-.374-.563-1-.376-1.5l1.813-5.562c.187-.5.5-1 .875-1.375zM296 463h6c1.062 0 2 .938 2 2 0 1.125-.938 2-2 2h-6c-1.125 0-2 .938-2 2v16c0 1.125.875 2 2 2h16c1.062 0 2-.875 2-2v-6c0-1.062.875-2 2-2 1.062 0 2 .938 2 2v6c0 3.312-2.688 6-6 6h-16c-3.312 0-6-2.688-6-6v-16c0-3.312 2.688-6 6-6zM289 531h20c1.625 0 3 1.375 3 3v3h3.125c1.063 0 2.125.438 2.875 1.188l4.812 4.812a4.122 4.122 0 0 1 1.188 2.875V553c1.062 0 2 .938 2 2 0 1.125-.938 2-2 2h-2c0 3.312-2.688 6-6 6s-6-2.688-6-6h-8c0 3.312-2.688 6-6 6s-6-2.688-6-6h-1c-1.688 0-3-1.312-3-3v-20a3 3 0 0 1 3-3zm23 10v6h8v-1.125L315.125 541H312zm-19 16c0 1.125.562 2.062 1.5 2.625.875.563 2.062.563 3 0 .875-.563 1.5-1.5 1.5-2.625 0-1.062-.625-2-1.5-2.562-.938-.563-2.125-.563-3 0-.938.562-1.5 1.5-1.5 2.562zm23-3c-1.125 0-2.062.625-2.625 1.5-.563.938-.563 2.125 0 3 .563.938 1.5 1.5 2.625 1.5 1.062 0 2-.562 2.562-1.5.563-.875.563-2.062 0-3-.562-.875-1.5-1.5-2.562-1.5zM310 603h2c1.062 0 2 .938 2 2 0 1.125-.938 2-2 2v8.312c0 .75.188 1.5.562 2.126l6.75 11c.438.687.688 1.437.688 2.25 0 2.374-2 4.312-4.375 4.312h-19.313a4.322 4.322 0 0 1-4.312-4.312c0-.813.188-1.563.625-2.25l6.75-11c.375-.626.625-1.376.625-2.126V607c-1.125 0-2-.875-2-2 0-1.062.875-2 2-2h10zm-6 12.312c0 1.5-.438 2.938-1.188 4.188l-2.187 3.5h10.687l-2.124-3.5c-.813-1.25-1.188-2.688-1.188-4.188V607h-4v8.312z" fill="#1C7ED6"/><path d="M350 173c0-12.15 9.85-22 22-22h66v626c0 12.15-9.85 22-22 22h-44c-12.15 0-22-9.85-22-22V173z" fill="#63E6BE"/><path d="M400.812 173c-1.124 0-2.124.562-2.75 1.5l-2.812 4.5H401a3 3 0 0 0 3-3c0-1.625-1.375-3-3-3h-.188zm-8.124 6l-2.813-4.5c-.625-.938-1.625-1.5-2.75-1.5H387a3 3 0 0 0-3 3c0 1.688 1.312 3 3 3h5.688zm1.312-1.688l2.375-3.874c1-1.5 2.625-2.438 4.437-2.438H401c2.75 0 5 2.25 5 5a4.945 4.945 0 0 1-1 3h2c1.625 0 3 1.375 3 3v4c0 1.312-.875 2.438-2 2.875V199c0 2.25-1.812 4-4 4h-20c-2.25 0-4-1.75-4-4v-10.125a3.048 3.048 0 0 1-2-2.875v-4a3 3 0 0 1 3-3h2a4.945 4.945 0 0 1-1-3c0-2.75 2.188-5 5-5h.125c1.813 0 3.5.938 4.437 2.438l2.438 3.874zM387 181h-6c-.562 0-1 .5-1 1v4c0 .562.438 1 1 1h12v-6h-6zm8 0v6h12c.5 0 1-.438 1-1v-4c0-.5-.5-1-1-1h-12zm-2 8h-11v10c0 1.125.875 2 2 2h9v-12zm2 12h9c1.062 0 2-.875 2-2v-10h-11v12zM408 259c0-5-2.688-9.562-7-12.062-4.375-2.563-9.688-2.563-14 0-4.375 2.5-7 7.062-7 12.062 0 5.062 2.625 9.625 7 12.125 4.312 2.563 9.625 2.563 14 0 4.312-2.5 7-7.063 7-12.125zm-30 0c0-5.688 3-10.938 8-13.812 4.938-2.876 11-2.876 16 0 4.938 2.874 8 8.124 8 13.812 0 5.75-3.062 11-8 13.875-5 2.875-11.062 2.875-16 0-5-2.875-8-8.125-8-13.875zm10.25 4.375c1.125 1.313 3 2.625 5.75 2.625 2.688 0 4.625-1.312 5.688-2.625.374-.437 1-.437 1.437-.125.437.375.437 1 .125 1.438-1.438 1.624-3.812 3.312-7.25 3.312-3.5 0-5.875-1.688-7.312-3.312-.313-.438-.313-1.063.124-1.438.438-.312 1.063-.312 1.438.125zM387.5 256c0-.812.688-1.5 1.5-1.5s1.5.688 1.5 1.5c0 .875-.688 1.5-1.5 1.5a1.48 1.48 0 0 1-1.5-1.5zm11.5-1.5c.812 0 1.5.688 1.5 1.5 0 .875-.688 1.5-1.5 1.5a1.48 1.48 0 0 1-1.5-1.5c0-.812.688-1.5 1.5-1.5zM382 319c-1.125 0-2 .938-2 2v14.625l4.188-4.25c1-.937 2.562-.937 3.562 0l4.25 4.25 8.188-8.25c1-.937 2.562-.937 3.562 0l4.25 4.25V321c0-1.062-.938-2-2-2h-24zm-2 19.438V341c0 1.125.875 2 2 2h2.562l6-6-4.25-4.188a.49.49 0 0 0-.687 0L380 338.438zm22.312-9.626a.49.49 0 0 0-.687 0L387.375 343H406c1.062 0 2-.875 2-2v-6.562l-5.688-5.626zM378 321c0-2.188 1.75-4 4-4h24c2.188 0 4 1.812 4 4v20c0 2.25-1.812 4-4 4h-24c-2.25 0-4-1.75-4-4v-20zm10 3c0-.5-.5-1-1-1-.562 0-1 .5-1 1 0 .562.438 1 1 1 .5 0 1-.438 1-1zm-4 0c0-1.062.562-2 1.5-2.562.875-.563 2.062-.563 3 0 .875.562 1.5 1.5 1.5 2.562 0 1.125-.625 2.062-1.5 2.625-.938.563-2.125.563-3 0-.938-.563-1.5-1.5-1.5-2.625zM402 400c0-3.875-2.125-7.5-5.5-9.5-3.438-1.938-7.625-1.938-11 0-3.438 2-5.5 5.625-5.5 9.5 0 3.938 2.062 7.562 5.5 9.562 3.375 1.938 7.562 1.938 11 0 3.375-2 5.5-5.624 5.5-9.562zm-2.562 9.875c-2.25 2-5.25 3.125-8.438 3.125-7.188 0-13-5.812-13-13 0-7.125 5.812-13 13-13 7.125 0 13 5.875 13 13 0 3.25-1.188 6.188-3.125 8.5l8.813 8.812c.374.376.374 1.063 0 1.438-.376.375-1.063.375-1.438 0l-8.812-8.875zM394 461c-2.25 0-4 1.812-4 4h8c0-2.188-1.812-4-4-4zm-6 4c0-3.312 2.688-6 6-6s6 2.688 6 6v.25c0 1-.812 1.75-1.812 1.75h-8.438c-1 0-1.75-.75-1.75-1.75V465zm-7.75.312c.375-.374 1.062-.374 1.438 0l4.937 4.938c1.063-.75 2.437-1.25 3.875-1.25h7c1.375 0 2.75.5 3.812 1.25l4.938-4.938c.375-.374 1.062-.374 1.438 0 .374.376.374 1.063 0 1.438l-4.938 4.938c.75 1.062 1.25 2.374 1.25 3.812v.5h5c.5 0 1 .5 1 1 0 .562-.5 1-1 1h-5v1c0 1.938-.562 3.688-1.438 5.188l5.126 5.124c.374.376.374 1.063 0 1.438-.376.375-1.063.375-1.438 0l-4.938-4.938c-1.812 2-4.437 3.188-7.312 3.188-2.938 0-5.562-1.188-7.375-3.188l-4.937 4.938c-.376.375-1.063.375-1.438 0s-.375-1.062 0-1.438l5.125-5.124c-.875-1.5-1.375-3.25-1.375-5.188v-1h-5c-.562 0-1-.438-1-1 0-.5.438-1 1-1h5v-.5c0-1.375.438-2.75 1.25-3.812l-5-4.938c-.375-.375-.375-1.062 0-1.438zM386 479c0 4.125 3 7.5 7 7.938V475c0-.5.438-1 1-1 .5 0 1 .5 1 1v11.938c3.938-.438 7-3.813 7-7.938v-3.5c0-2.438-2.062-4.5-4.5-4.5h-7c-2.5 0-4.5 2.062-4.5 4.5v3.5zM394 533c-5.062 0-9.625 2.688-12.125 7-2.563 4.375-2.563 9.688 0 14 2.5 4.375 7.063 7 12.125 7 5 0 9.562-2.625 12.062-7 2.563-4.312 2.563-9.625 0-14-2.5-4.312-7.062-7-12.062-7zm0 30c-5.75 0-11-3-13.875-8-2.875-4.938-2.875-11 0-16 2.875-4.938 8.125-8 13.875-8 5.688 0 10.938 3.062 13.812 8 2.876 5 2.876 11.062 0 16-2.874 5-8.124 8-13.812 8zm5.75-24.312c1.562-.5 3.062 1 2.562 2.562l-3.062 9.125c-.312.937-1 1.625-1.938 1.937l-9.124 3.063c-1.563.5-3.063-1-2.563-2.563l3.063-9.124c.312-.938 1-1.626 1.937-1.938l9.125-3.062zm.625 1.937l-9.125 3.063a.803.803 0 0 0-.625.624l-3.063 9.126 9.126-3.063a.803.803 0 0 0 .624-.625l3.063-9.125zM394 548.5c-.875 0-1.5-.625-1.5-1.5 0-.812.625-1.5 1.5-1.5.812 0 1.5.688 1.5 1.5 0 .875-.688 1.5-1.5 1.5zM382.312 616.188c-.124.5-.562.812-1 .812-.624 0-1.124-.5-1-1.125 1.438-6.187 7-10.875 13.688-10.875 5.062 0 9.5 2.75 12 6.812V608c0-.5.438-1 1-1 .5 0 1 .5 1 1v6c0 .562-.5 1-1 1h-6c-.562 0-1-.438-1-1 0-.5.438-1 1-1h3.375c-2.063-3.562-5.937-6-10.375-6-5.688 0-10.438 3.938-11.688 9.188zm23.313 5.687c.125-.5.563-.875 1.063-.875.562 0 1.062.562.937 1.188-1.437 6.187-7 10.812-13.625 10.812-5.125 0-9.562-2.688-12-6.75V630c0 .562-.438 1-1 1s-1-.438-1-1v-6c0-.5.438-1 1-1h6c.562 0 1 .5 1 1 0 .562-.438 1-1 1h-3.438c2.063 3.625 5.938 6 10.438 6 5.625 0 10.375-3.875 11.625-9.125z" fill="#0CA678"/><path fill="url(#paint0_linear_3000_6246)" d="M86 307h352v288H86z"/><path fill-rule="evenodd" clip-rule="evenodd" d="M41.79 333.333l-3.09-8.241a1.683 1.683 0 0 0-3.152 0l-3.09 8.241-8.242 3.091a1.682 1.682 0 0 0 0 3.152l8.241 3.091 3.09 8.241a1.683 1.683 0 0 0 3.153 0l3.09-8.241 8.242-3.091a1.682 1.682 0 0 0 0-3.152l-8.241-3.091zM350.446 507.431l-5.118-7.16a1.684 1.684 0 0 0-3.045.816l-.852 8.759-7.16 5.118a1.684 1.684 0 0 0 .816 3.046l8.76.852 5.118 7.16a1.682 1.682 0 0 0 3.045-.816l.852-8.76 7.16-5.118a1.682 1.682 0 0 0-.816-3.045l-8.76-.852zM477.499 540.416l1.444-8.682a1.683 1.683 0 0 0-2.73-1.576l-6.797 5.592-8.682-1.445a1.685 1.685 0 0 0-1.576 2.731l5.592 6.796-1.445 8.683a1.685 1.685 0 0 0 2.731 1.576l6.796-5.592 8.683 1.444a1.683 1.683 0 0 0 1.576-2.73l-5.592-6.797z" fill="#E599F7"/><circle cx="411.5" cy="510.5" r="6.5" fill="#E599F7"/><circle cx="6.5" cy="370.5" r="6.5" fill="#E599F7"/><rect x="123" y="379" width="74" height="43" rx="16" stroke="#001D40" stroke-width="16"/><path d="M458 600c0-8.837-7.163-16-16-16H74c-8.837 0-16 7.163-16 16v20c0 11.046 8.954 20 20 20h360c11.046 0 20-8.954 20-20v-20z" fill="#001D40"/><path d="M58 600c0-8.837 7.163-16 16-16h211c8.837 0 16 7.163 16 16v24c0 8.837-7.163 16-16 16H74c-8.837 0-16-7.163-16-16v-24z" fill="#193154"/><path fill="#001D40" d="M43 417h258v135H43z"/><rect x="34" y="385" width="243" height="199" rx="20" fill="#193154"/><path d="M165 453.25c2.125.625 3.375 2.75 2.75 4.875l-16 56c-.625 2.125-2.75 3.375-4.875 2.75s-3.375-2.75-2.75-4.875l16-56c.625-2.125 2.75-3.375 4.875-2.75zm10.125 15c1.5-1.625 4.125-1.625 5.625 0l14 14c1.625 1.5 1.625 4.125 0 5.625l-14 14c-1.5 1.625-4.125 1.625-5.625 0-1.625-1.5-1.625-4.125 0-5.625L186.25 485l-11.125-11.125c-1.625-1.5-1.625-4.125 0-5.625zm-38.375 0c1.625 1.5 1.625 4.125 0 5.625L125.625 485l11.125 11.25c1.625 1.5 1.625 4.125 0 5.625-1.5 1.625-4.125 1.625-5.625 0l-14-14c-1.625-1.5-1.625-4.125 0-5.625l14-14c1.5-1.625 4.125-1.625 5.625 0z" fill="#fff"/><path d="M34 401c0-8.837 7.163-16 16-16h16c0 17.673-14.327 32-32 32v-16z" fill="#FAB005"/><path d="M277 417l-32-32h40c8.837 0 16 7.163 16 16v16h-24zM277 552l-32 32h40c8.837 0 16-7.163 16-16v-16h-24z" fill="#DE8500"/><path d="M34 568c0 8.837 7.163 16 16 16h16c0-17.673-14.327-32-32-32v16zM58 624c0 8.837 7.163 16 16 16h16c0-17.673-14.327-32-32-32v16zM277 568c0 8.837-7.163 16-16 16h-16c0-17.673 14.327-32 32-32v16zM458 624c0 8.837-7.163 16-16 16h-16c0-17.673 14.327-32 32-32v16z" fill="#FAB005"/><path d="M269 640h64c0-17.673-14.327-32-32-32l-32 32z" fill="#DE8500"/><path d="M301 624c0 8.837-7.163 16-16 16h-16c0-17.673 14.327-32 32-32v16zM277 401c0-8.837-7.163-16-16-16h-16c0 17.673 14.327 32 32 32v-16z" fill="#FAB005"/><path fill-rule="evenodd" clip-rule="evenodd" d="M308 584H74c-7.456 0-13.72 5.099-15.496 12H308v-12z" fill="#001D40"/><path fill-rule="evenodd" clip-rule="evenodd" d="M34 486.379v-48.96a25.927 25.927 0 0 1 15.64-.678c13.895 3.723 22.14 18.005 18.418 31.9-3.723 13.894-18.005 22.14-31.9 18.417a26.22 26.22 0 0 1-2.158-.679z" fill="#E599F7"/><path fill-rule="evenodd" clip-rule="evenodd" d="M34 469.718v-8.179c.306 1.169.622 2.34 1.054 3.523.471 1.292 1.06 2.54 1.606 3.67l-2.66.986zm0 6.121v-3.988l3.58-1.327c1.96 3.54 4.289 6.276 6.483 7.73A16.039 16.039 0 0 1 34 475.839zm15.378-11.818c-.311-1.217-.644-2.494-1.137-3.844-.472-1.292-1.04-2.481-1.607-3.67l-10.842 4.016c.333 1.276.666 2.553 1.137 3.844.493 1.351 1.06 2.54 1.607 3.671l10.842-4.017zm8.24-7.318a14.373 14.373 0 0 0-1.9-3.562l-7.209 2.671c.568 1.189 1.135 2.379 1.607 3.67.472 1.292.826 2.627 1.138 3.844l7.209-2.67c-.078-1.305-.352-2.603-.845-3.953zm-10.03-2.683l6.858-2.54c-3.345-3.693-8.296-5.591-13.318-5.131 2.194 1.454 4.524 4.19 6.46 7.671zm-12.248 4.538l10.373-3.843a26.249 26.249 0 0 0-3.597-4.933c-1.16-1.17-2.169-1.929-3.108-2.314-.859-.348-1.472-.388-1.882-.236-.47.174-.91.604-1.341 1.43-.468.906-.748 2.143-.878 3.791a26.419 26.419 0 0 0 .433 6.105zm4.116 11.272a25.913 25.913 0 0 0 3.62 4.991c1.159 1.17 2.168 1.929 3.107 2.314.86.348 1.45.329 1.861.177.469-.174.932-.545 1.363-1.371.467-.906.747-2.143.877-3.791a26.057 26.057 0 0 0-.454-6.163l-10.374 3.843zm12.25-4.538c.785 3.974.771 7.579.035 10.118 4.12-2.927 6.671-7.604 6.822-12.658l-6.858 2.54z" fill="#9C36B5"/><path fill="#E599F7" d="M235 462h42v46h-42z"/><path fill="#fff" d="M235 478h42v7h-42zM235 501h42v7h-42z"/><path fill="#9C36B5" d="M289 462h-12v46h12z"/><path fill="#C2C7D1" d="M289 478h-12v7h12zM289 501h-12v7h12z"/></g><defs><linearGradient id="paint0_linear_3000_6246" x1="262" y1="307" x2="262" y2="595" gradientUnits="userSpaceOnUse"><stop stop-color="#9C36B5" stop-opacity="0"/><stop offset="1" stop-color="#9C36B5"/></linearGradient><clipPath id="clip0_3000_6246"><path fill="#fff" d="M0 0h526v640H0z"/></clipPath></defs></svg>