<?xml version="1.0" standalone="no"?><!DOCTYPE svg PUBLIC "-//W3C//DTD SVG 1.1//EN" "http://www.w3.org/Graphics/SVG/1.1/DTD/svg11.dtd"><svg t="1695999778232" class="icon" viewBox="0 0 1024 1024" version="1.1" xmlns="http://www.w3.org/2000/svg" p-id="4152" xmlns:xlink="http://www.w3.org/1999/xlink" width="200" height="200"><path d="M426.666667 640h64a21.333333 21.333333 0 1 1 0 42.666667H426.666667v64a21.333333 21.333333 0 1 1-42.666667 0V682.666667H320a21.333333 21.333333 0 1 1 0-42.666667H384v-64a21.333333 21.333333 0 1 1 42.666667 0V640z m256-42.666667a42.666667 42.666667 0 1 1-85.333334 0 42.666667 42.666667 0 0 1 85.333334 0z m-42.666667 128a42.666667 42.666667 0 1 1-85.333333 0 42.666667 42.666667 0 0 1 85.333333 0z m-21.333333 170.666667H256a42.666667 42.666667 0 0 1-42.666667-42.666667V85.333333a42.666667 42.666667 0 0 1 42.666667-42.666666h469.333333a42.666667 42.666667 0 0 1 42.666667 42.666666v661.333334a149.333333 149.333333 0 0 1-149.333333 149.333333z m0-42.666667a106.666667 106.666667 0 0 0 106.666666-106.666666V85.333333H256v768h362.666667z m-298.666667-384a21.333333 21.333333 0 0 1-21.333333-21.333333v-298.666667a21.333333 21.333333 0 0 1 21.333333-21.333333h341.333333a21.333333 21.333333 0 0 1 21.333334 21.333333v298.666667a21.333333 21.333333 0 0 1-21.333334 21.333333h-341.333333z m21.333333-42.666666h298.666667V170.666667H341.333333v256z" fill="#000000" p-id="4153"></path></svg>