<?xml version="1.0" standalone="no"?><!DOCTYPE svg PUBLIC "-//W3C//DTD SVG 1.1//EN" "http://www.w3.org/Graphics/SVG/1.1/DTD/svg11.dtd"><svg t="1746706784675" class="icon" viewBox="0 0 1024 1024" version="1.1" xmlns="http://www.w3.org/2000/svg" p-id="2657" xmlns:xlink="http://www.w3.org/1999/xlink" width="200" height="200"><path d="M407.850667 29.397333c-46.762667 10.410667-93.056 24.874667-136.448 46.72 0.981333 38.314667 3.456 75.008 8.490666 112.298667-16.853333 10.794667-34.56 20.053333-50.261333 32.682667-16 12.288-32.341333 24.064-46.805333 38.442666A900.821333 900.821333 0 0 0 91.733333 206.592C57.728 243.157333 25.941333 282.624 0 326.826667c19.541333 31.616 39.936 61.226667 61.952 89.344h0.597333v271.189333c0.512 0 0.981333 0 1.493334 0.128l166.229333 16.042667a17.92 17.92 0 0 1 16.128 16.597333l5.12 73.386667 145.024 10.325333 9.984-67.712a17.877333 17.877333 0 0 1 17.706667-15.274667h175.402666c8.874667 0 16.426667 6.485333 17.706667 15.274667l9.984 67.712 145.024-10.325333 5.12-73.386667a17.92 17.92 0 0 1 16.128-16.597333l166.186667-16.042667c0.512 0 0.981333-0.128 1.493333-0.128v-21.632h0.085333V416.213333h0.597334c22.016-28.117333 42.410667-57.728 61.952-89.344-25.941333-44.202667-57.770667-83.669333-91.776-120.277333-31.530667 15.872-62.165333 33.834667-91.093334 52.949333-14.464-14.378667-30.762667-26.154667-46.762666-38.442666-15.744-12.629333-33.450667-21.888-50.261334-32.682667a1048.746667 1048.746667 0 0 0 8.490667-112.298667C709.12 54.272 662.869333 39.808 616.064 29.397333a972.928 972.928 0 0 0-50.645333 98.645334 347.477333 347.477333 0 0 0-53.162667-4.224h-0.682667c-17.792 0.213333-35.498667 1.28-53.162666 4.224A964.608 964.608 0 0 0 407.722667 29.397333l0.042666-0.042666zM276.309333 426.410667a100.224 100.224 0 1 1 0 200.405333 100.224 100.224 0 0 1 0-200.405333z m471.381334 0a100.181333 100.181333 0 1 1 0 200.405333 100.181333 100.181333 0 0 1 0-200.405333z m-461.781334 39.68a66.517333 66.517333 0 1 0 0 133.034666 66.517333 66.517333 0 0 0 0-133.034666z m452.138667 0a66.474667 66.474667 0 1 0 0 132.949333 66.474667 66.474667 0 0 0 0-132.949333zM512 485.418667c17.792 0 32.298667 13.141333 32.298667 29.312v92.245333c0 16.170667-14.464 29.312-32.298667 29.312s-32.256-13.141333-32.256-29.312v-92.245333c0-16.170667 14.464-29.312 32.256-29.312zM62.293333 723.242667l0.256 37.162666c0 157.909333 200.277333 233.770667 449.109334 234.666667h0.597333c248.832-0.853333 449.066667-76.757333 449.066667-234.666667 0-3.584 0.213333-21.12 0.298666-37.162666l-149.418666 14.421333-5.162667 73.770667a17.92 17.92 0 0 1-16.597333 16.64l-178.389334 12.629333a17.92 17.92 0 0 1-17.706666-15.274667l-10.154667-68.864h-144.469333l-10.154667 68.864a17.92 17.92 0 0 1-18.986667 15.232l-177.109333-12.629333a17.92 17.92 0 0 1-16.597333-16.597333l-5.12-73.770667-149.504-14.378667z" p-id="2658"></path></svg>