<svg id="图层_2" data-name="图层 2" xmlns="http://www.w3.org/2000/svg" width="180.19" height="65.631" viewBox="0 0 180.19 65.631">
  <g id="图层_1" data-name="图层 1">
    <path id="路径_1" data-name="路径 1" d="M114.73,25.42" transform="translate(8.186 1.814)" fill="#f39800"/>
    <path id="路径_2" data-name="路径 2" d="M94,34.08" transform="translate(6.707 2.432)" fill="none"/>
    <rect id="矩形_2" data-name="矩形 2" width="3.118" height="7.585" transform="translate(14.12 11.238)" fill="#fff"/>
    <path id="路径_3" data-name="路径 3" d="M1.86,18.27v2.925H92.132v33.79c0,3.01,2,4.285,3.825,4.285,2.282,0,3.675,0,5.475-.054a3.9,3.9,0,0,0,3.7-3.053c.493-2.218.825-9.01.825-9.01h-2.764s-.471,6.4-.536,7.253-.632,2.518-2.143,2.518H97.028a1.875,1.875,0,0,1-1.928-2V18.27Z" transform="translate(0.133 1.304)" fill="#fff"/>
    <rect id="矩形_3" data-name="矩形 3" width="3.118" height="7.585" transform="translate(61.174 11.238)" fill="#fff"/>
    <path id="路径_4" data-name="路径 4" d="M57.544,21.7h3.118v4.907l1.371-.964,5.817,5.335-2.068,1.789-5.121-5.25V58.212H57.544V31.31L53.206,40.9,50.87,38.959l6.674-13.231Z" transform="translate(3.629 1.548)" fill="#fff"/>
    <path id="路径_5" data-name="路径 5" d="M14.12,21.7h3.118v1.843L2.7,58.319,0,57.14,14.12,23.307Z" transform="translate(0 1.548)" fill="#fff"/>
    <path id="路径_6" data-name="路径 6" d="M18.465,27.99,15.24,29.543l9.1,9.91,1.553-.889Z" transform="translate(1.087 1.997)" fill="#fff"/>
    <path id="路径_7" data-name="路径 7" d="M32.03,23.32h2.914V35.191s.964,6.76,8.1,13.124a52.067,52.067,0,0,0,11.6,7.7l-1.414,2.046a84.283,84.283,0,0,1-12.085-8.3,28.262,28.262,0,0,1-7.5-10.51s-1.682,4.971-7.767,10.713c-4.725,4.457-13.124,8.164-13.124,8.164L11.31,55.868s8.357-3.9,12.62-7.639c7.2-6.321,8.1-13.038,8.1-13.038Z" transform="translate(0.807 1.664)" fill="#fff"/>
    <path id="路径_8" data-name="路径 8" d="M46.114,27.99l2.764,2.025-9.267,9.439L38.4,38.564Z" transform="translate(2.74 1.997)" fill="#fff"/>
    <path id="路径_9" data-name="路径 9" d="M70.694,21.7h2.828V44.52a21.256,21.256,0,0,1-3.61,12.288,72.146,72.146,0,0,1-6.878,7.274L61.17,62.176a42.854,42.854,0,0,0,6.075-6.3,18.8,18.8,0,0,0,3.45-11.067Z" transform="translate(4.364 1.548)" fill="#fff"/>
    <path id="路径_10" data-name="路径 10" d="M123.789,48.583l-3.964,8.571h-2.293L110.44,41.18h5.035l3.31,8.635,3.5-8.635h2.989l3.471,8.635,3.3-8.635H137.1l-7.06,15.974h-2.346Z" transform="translate(7.88 2.938)" fill="#fff"/>
    <path id="路径_11" data-name="路径 11" d="M137,36.57a2.71,2.71,0,1,1,2.71,2.721,2.593,2.593,0,0,1-1.907-.8,2.635,2.635,0,0,1-.8-1.918Zm5.2,5.1V57.343h-4.928V41.669Z" transform="translate(9.775 2.417)" fill="#fff"/>
    <path id="路径_12" data-name="路径 12" d="M150.8,34.12V49.408h.064l6.085-7.757h5.785L156.6,49.408l6.428,7.917H157L150.892,49.6h-.064v7.724H145.9V34.12Z" transform="translate(10.41 2.434)" fill="#fff"/>
    <path id="路径_13" data-name="路径 13" d="M163.13,36.57a2.711,2.711,0,1,1,2.711,2.721,2.593,2.593,0,0,1-1.907-.8,2.636,2.636,0,0,1-.8-1.918Zm5.217,5.1V57.343h-4.928V41.669Z" transform="translate(11.639 2.417)" fill="#fff"/>
    <path id="路径_14" data-name="路径 14" d="M93.24,35.987,118.834,0H137.5Z" transform="translate(6.652)" fill="#337ab7"/>
    <path id="路径_15" data-name="路径 15" d="M95.24,35.929l41.493-18.524L138.426.81Z" transform="translate(6.795 0.058)" fill="#3278b3"/>
  </g>
</svg>
