<?xml version="1.0" encoding="utf-8"?>
<!-- Generator: Adobe Illustrator 27.0.0, SVG Export Plug-In . SVG Version: 6.00 Build 0)  -->
<svg version="1.1" id="Layer_1" xmlns="http://www.w3.org/2000/svg" xmlns:xlink="http://www.w3.org/1999/xlink" x="0px" y="0px"
	 viewBox="0 0 473 131" style="enable-background:new 0 0 473 131;" xml:space="preserve">
<style type="text/css">
	.st0{fill:#FFFFFF;}
</style>
<g>
	<g>
		<path class="st0" d="M170.66,69.14V39.75c0-0.01,0-0.01,0-0.02c0-6.29-5.08-11.39-11.35-11.44l0,0c-0.03,0-0.06,0-0.08,0
			c0,0,0,0-0.01,0l0,0l0,0l0,0l0,0c-3.53-0.06-8.46-0.87-11.96-4.38c-3.11-3.11-4.13-8.3-4.4-12.63l-0.01,0.02
			c-0.01-0.1-0.01-0.21-0.02-0.31c-0.01-0.07,0-0.14-0.01-0.21c-0.59-5.77-5.46-10.27-11.38-10.27h-91.5
			c-0.39,0-0.77,0.02-1.16,0.06c-0.13,0.01-0.26,0.04-0.39,0.06c-0.24,0.03-0.48,0.06-0.72,0.11c-0.17,0.03-0.33,0.08-0.49,0.12
			c-0.2,0.05-0.4,0.09-0.59,0.15c-0.17,0.05-0.32,0.11-0.49,0.17c-0.19,0.07-0.38,0.13-0.57,0.21c-0.15,0.06-0.3,0.14-0.45,0.21
			c-0.19,0.09-0.38,0.17-0.57,0.27c-0.14,0.08-0.28,0.16-0.41,0.24c-0.18,0.11-0.37,0.21-0.55,0.33c-0.15,0.1-0.29,0.21-0.43,0.32
			c-0.15,0.11-0.31,0.22-0.46,0.35c-0.25,0.2-0.48,0.42-0.7,0.64c-0.04,0.04-0.09,0.08-0.13,0.12c-0.04,0.04-0.07,0.08-0.1,0.11
			c-0.23,0.23-0.45,0.47-0.66,0.72c-0.12,0.14-0.22,0.3-0.33,0.44c-0.11,0.15-0.23,0.3-0.33,0.45c-0.11,0.17-0.21,0.35-0.32,0.52
			C30,6.26,29.91,6.4,29.83,6.55c-0.09,0.18-0.17,0.36-0.26,0.54c-0.08,0.16-0.15,0.32-0.22,0.48c-0.07,0.17-0.13,0.35-0.19,0.53
			c-0.06,0.18-0.13,0.35-0.19,0.53c-0.05,0.18-0.09,0.36-0.14,0.53c-0.05,0.18-0.1,0.37-0.13,0.55c-0.04,0.21-0.06,0.41-0.09,0.62
			c-0.02,0.16-0.06,0.32-0.07,0.49c-0.02,0.16-0.02,0.32-0.03,0.48l-0.01-0.01c-0.26,4.32-1.29,9.52-4.4,12.63
			c-3.51,3.51-8.43,4.32-11.96,4.38l0,0l0,0l0,0c0,0,0,0-0.01,0c-0.03,0-0.05,0-0.08,0l0,0c-0.35,0-0.7,0.02-1.04,0.05
			c-0.17,0.02-0.34,0.05-0.51,0.08c-0.2,0.03-0.4,0.05-0.59,0.09c-0.2,0.04-0.39,0.09-0.58,0.14c-0.17,0.04-0.34,0.08-0.51,0.13
			c-0.19,0.06-0.37,0.13-0.56,0.19c-0.17,0.06-0.34,0.11-0.5,0.18c-0.17,0.07-0.34,0.16-0.51,0.24c-0.17,0.08-0.34,0.15-0.51,0.24
			c-0.16,0.09-0.32,0.19-0.48,0.28c-0.16,0.1-0.32,0.19-0.48,0.29c-0.18,0.12-0.34,0.25-0.51,0.38c-0.13,0.1-0.26,0.19-0.38,0.29
			c-0.59,0.48-1.12,1.02-1.6,1.6C3.19,32.6,3.1,32.74,3,32.86c-0.13,0.17-0.26,0.34-0.38,0.52c-0.11,0.16-0.2,0.32-0.29,0.48
			c-0.09,0.16-0.19,0.31-0.28,0.48c-0.09,0.16-0.16,0.33-0.24,0.5s-0.16,0.34-0.24,0.51c-0.07,0.17-0.12,0.33-0.18,0.5
			c-0.07,0.19-0.14,0.37-0.19,0.56c-0.05,0.17-0.09,0.34-0.13,0.51c-0.05,0.19-0.1,0.38-0.14,0.58s-0.06,0.4-0.09,0.59
			c-0.02,0.17-0.06,0.34-0.07,0.51c-0.05,0.37-0.07,0.75-0.07,1.13l0,0l0,0l0,0v29.39c0,0.01,0,0.01,0,0.02
			c0,6.29,5.08,11.39,11.35,11.44l0,0c0.03,0,0.06,0,0.08,0l0,0l0,0l0,0l0,0c3.53,0.06,8.46,0.87,11.96,4.38
			c3.05,3.05,4.09,8.09,4.38,12.36v29.25c0,3.71,4.67,5.34,6.98,2.45l16.53-20.67h79.42c0.01,0,0.01,0,0.02,0
			c6.1,0,11.07-4.78,11.41-10.79l0.01,0.02c0.26-4.32,1.29-9.52,4.4-12.63c3.51-3.51,8.43-4.32,11.96-4.38l0,0l0,0l0,0
			c0,0,0,0,0.01,0c0.03,0,0.06,0,0.08,0l0,0c0.31,0,0.62-0.02,0.93-0.05c0.05,0,0.11,0,0.16-0.01
			C166.15,79.94,170.66,75.07,170.66,69.14L170.66,69.14L170.66,69.14L170.66,69.14z M143.4,81.11c-3.56,3.56-8.61,4.34-12.16,4.38
			l0,0H40.12l0,0c-3.55-0.04-8.61-0.81-12.16-4.38c-2.89-2.89-4-7.91-4.38-12.35V40.12c0.37-4.44,1.48-9.47,4.38-12.36
			c3.56-3.56,8.61-4.34,12.16-4.38l0,0h91.12l0,0c3.55,0.04,8.61,0.81,12.16,4.38c2.9,2.9,4,7.91,4.38,12.35v28.62
			C147.41,73.19,146.3,78.21,143.4,81.11z"/>
		<path class="st0" d="M60.35,37.1L60.35,37.1c-6.32,0-11.44,5.12-11.44,11.44v11.44c0,6.32,5.12,11.44,11.44,11.44l0,0
			c6.32,0,11.44-5.12,11.44-11.44V48.54C71.79,42.22,66.67,37.1,60.35,37.1z"/>
		<path class="st0" d="M111.01,37.1L111.01,37.1c-6.32,0-11.44,5.12-11.44,11.44v11.44c0,6.32,5.12,11.44,11.44,11.44l0,0
			c6.32,0,11.44-5.12,11.44-11.44V48.54C122.45,42.22,117.33,37.1,111.01,37.1z"/>
	</g>
	<path class="st0" d="M225.71,0.5c0,0,23.79,0,35.88,0c16.75,0,31.58,11.5,34.94,27.37c0.57,2.69,0.86,5.32,0.9,7.87
		c0.25,18.35-15.29,35.39-35.86,35.39c-4.52,0.07-18.07,0.02-18.07,0.02l0.1,37.21h-17.89V0.5z M243.5,54.14
		c0,0,12.79,0.02,17.61-0.01c12.44,0,18.57-10.42,18.57-18.72c0-10.02-8.41-18.09-18.08-18.09c-4.65,0-18.1,0-18.1,0V54.14
		L243.5,54.14z"/>
	<path class="st0" d="M342.8,30.86c22.43-0.07,39.87,17.18,39.91,39.47c0.04,22.35-17.21,39.56-39.71,39.63
		c-22.63,0.06-40.02-17.11-40.03-39.54C302.95,48.13,320.28,30.92,342.8,30.86z M342.87,46.63C330,46.61,320.14,56.8,320.06,70.22
		c-0.08,13.66,9.75,24,22.85,24.01c12.73,0.01,22.59-10.38,22.58-23.82C365.49,56.97,355.67,46.65,342.87,46.63z"/>
	<path class="st0" d="M455.15,81.44c-1.72,5.09-8.01,13.09-21.47,13.09c-12.75,0-22.38-10.86-21.99-21.33c0,0,58.47-0.06,58.54,0
		c3.68-26.4-12.66-42.33-36.06-42.33c-27.98,0-39.69,22.3-39.69,38.73c0,29.04,22.53,40.34,39.14,40.34
		c18.17-0.01,32.16-8.65,38.7-25.08C466.41,83.69,461.06,82.62,455.15,81.44z M433.91,46.46c13.28,0,19.72,8.11,19.39,14.64h-40.03
		C413.26,55.94,421.37,46.46,433.91,46.46z"/>
</g>
</svg>
