<?xml version="1.0" standalone="no"?><!DOCTYPE svg PUBLIC "-//W3C//DTD SVG 1.1//EN" "http://www.w3.org/Graphics/SVG/1.1/DTD/svg11.dtd"><svg t="1696166475138" class="icon" viewBox="0 0 1024 1024" version="1.1" xmlns="http://www.w3.org/2000/svg" p-id="4206" xmlns:xlink="http://www.w3.org/1999/xlink" width="200" height="200"><path d="M725.333333 64a170.666667 170.666667 0 0 1 170.666667 170.666667v554.666666a170.666667 170.666667 0 0 1-170.666667 170.666667H277.333333a170.666667 170.666667 0 0 1-170.666666-170.666667V234.666667a170.666667 170.666667 0 0 1 170.666666-170.666667h448z m0 74.666667H277.333333a96 96 0 0 0-95.893333 91.477333L181.333333 234.666667v554.666666a96 96 0 0 0 91.477334 95.893334L277.333333 885.333333h448a96 96 0 0 0 95.893334-91.477333L821.333333 789.333333V234.666667a96 96 0 0 0-91.477333-95.893334L725.333333 138.666667z" fill="#000000" p-id="4207"></path><path d="M896 384v256H682.666667a128 128 0 1 1 0-256h213.333333z m-74.666667 181.333333v-106.666666H682.666667a53.333333 53.333333 0 0 0-53.226667 49.834666L629.333333 512a53.333333 53.333333 0 0 0 49.834667 53.226667L682.666667 565.333333h138.666666z" fill="#000000" p-id="4208"></path></svg>