<?xml version="1.0" standalone="no"?><!DOCTYPE svg PUBLIC "-//W3C//DTD SVG 1.1//EN" "http://www.w3.org/Graphics/SVG/1.1/DTD/svg11.dtd"><svg t="1695990705613" class="icon" viewBox="0 0 1024 1024" version="1.1" xmlns="http://www.w3.org/2000/svg" p-id="6225" xmlns:xlink="http://www.w3.org/1999/xlink" width="200" height="200"><path d="M977.454545 488.727273v-9.309091l-111.70909-344.436364c-9.309091-23.272727-32.581818-41.890909-60.509091-41.890909h-586.472728c-27.927273 0-51.2 18.618182-60.509091 41.890909l-111.70909 344.436364v390.981818c0 32.581818 27.927273 60.509091 65.163636 60.509091h805.236364c37.236364 0 65.163636-27.927273 65.163636-60.509091l-4.654546-381.672727z m-749.381818-321.163637H791.272727v-4.654545l93.090909 288.581818h-232.727272c-9.309091 0-18.618182 4.654545-27.927273 9.309091-9.309091 4.654545-9.309091 13.963636-9.309091 23.272727 0 51.2-46.545455 93.090909-102.4 93.090909s-102.4-41.890909-102.4-93.090909c0-9.309091-4.654545-18.618182-9.309091-23.272727-4.654545-4.654545-13.963636-4.654545-27.927273-4.654545h-237.381818l93.090909-288.581819z m665.6 688.872728h-777.309091v-330.472728h218.763637c18.618182 74.472727 88.436364 130.327273 172.218182 130.327273s158.254545-51.2 172.218181-130.327273h214.109091v330.472728z" p-id="6226"></path><path d="M325.818182 214.109091h367.709091v69.818182H325.818182zM251.345455 335.127273h521.30909v69.818182h-521.30909z" p-id="6227"></path></svg>