<?xml version="1.0" standalone="no"?><!DOCTYPE svg PUBLIC "-//W3C//DTD SVG 1.1//EN" "http://www.w3.org/Graphics/SVG/1.1/DTD/svg11.dtd"><svg t="1695714520610" class="icon" viewBox="0 0 1024 1024" version="1.1" xmlns="http://www.w3.org/2000/svg" p-id="4003" xmlns:xlink="http://www.w3.org/1999/xlink" width="200" height="200"><path d="M487.186565 760.594214C274.448935 748.813582 105.516957 572.104099 105.516957 355.820842 105.402582 280.447671 126.33322 206.561376 166.021369 142.396962c61.648163 5.146878 145.828214 19.329387 209.420753 57.416285C397.745261 107.055065 445.09654 41.7469 510.97658 0.22875c69.997543 41.51815 110.143192 108.885066 136.106333 199.698872 50.896906-39.573774 140.681336-53.413158 206.332626-57.98816 39.802524 64.164414 60.961912 138.279459 60.847537 213.88138 0 215.597007-167.673852 391.734614-379.382107 404.658997v238.586396c0 13.153133-10.636881 23.790015-23.790014 23.790014s-23.790015-10.636881-23.790015-23.790014l-0.114375-238.472021zM370.409619 961.322462C317.911462 846.261142 220.120777 785.527979 106.546333 784.956104 93.3932 784.841729 82.870694 774.204848 82.870694 761.051715c0.114375-13.153133 10.751257-23.675639 23.904389-23.67564 131.874455 0.68625 246.592651 71.941919 306.868312 204.1595 5.718753 11.780632 0.68625 26.077516-11.094381 31.796269-11.780632 5.718753-26.077516 0.68625-31.79627-11.094382 0-0.343125-0.22875-0.571875-0.343125-0.915zM608.195389 941.535575C668.471051 809.317994 783.303621 738.062325 915.063701 737.376075c13.153133-0.114375 23.790015 10.522506 23.90439 23.67564 0.114375 13.153133-10.522506 23.790015-23.675639 23.904389-113.574444 0.571875-211.365129 61.305037-263.863286 176.366358-5.490003 11.895007-19.558137 17.270636-31.453145 11.780632-11.895007-5.490003-17.15626-19.558137-11.780632-31.567519z" fill="#3D3D3D" p-id="4004"></path></svg>